<svg width="600" height="296" viewBox="0 0 600 296" fill="none" xmlns="http://www.w3.org/2000/svg">
<g id="AWS_planned">
<rect width="600" height="296" fill="white"/>
<g id="Frame 13">
<rect width="600" height="32" fill="#313337"/>
<g id="Bluebricks-logo" clip-path="url(#clip0_7808_1238)">
<g id="Vector">
<path d="M45.755 8H43.3704V23.6769H45.755V8Z" fill="white"/>
<path d="M54.5476 19.2889C54.5476 20.8678 53.4561 21.8875 51.7663 21.8875C50.4001 21.8875 49.7074 21.1072 49.7074 19.5679V12.4074H47.3228V20.1497C47.3228 22.5112 48.7644 23.9785 51.0853 23.9785C52.948 23.9785 54.0014 23.1788 54.5455 22.5402V23.678H56.9301V12.4074H54.5455V19.2889H54.5476Z" fill="white"/>
<path d="M63.5312 12.0628C60.1867 12.0628 58.0259 14.4017 58.0259 18.0201C58.0259 21.6385 60.1867 23.9989 63.5312 23.9989C66.1895 23.9989 68.0214 22.6454 68.6908 20.1895L68.7438 19.9963H66.3051L66.2754 20.11C66.1938 20.4213 65.6814 21.9745 63.5747 21.9745C61.4681 21.9745 60.576 20.3827 60.4815 18.7543H68.7863L68.8032 18.6202C68.8255 18.4388 68.8255 18.1167 68.8255 17.8055C68.8255 14.2096 66.8472 12.0628 63.5334 12.0628H63.5312ZM63.4676 14.0894C65.115 14.0894 66.2818 15.1939 66.3518 16.7933H60.489C60.6725 15.1692 61.852 14.0894 63.4676 14.0894Z" fill="white"/>
<path d="M75.5571 12.0843C73.9744 12.0843 72.9519 12.7916 72.3303 13.4818V8H69.9457V23.6769H72.3303V22.5681C72.9105 23.27 73.9055 23.9785 75.5571 23.9785C78.5569 23.9785 80.5734 21.5934 80.5734 18.0426C80.5734 14.4919 78.558 12.0853 75.5571 12.0853V12.0843ZM75.2166 14.1537C77.3318 14.1537 78.0828 16.249 78.0828 18.0426C78.0828 19.8363 77.3318 21.9315 75.2166 21.9315C73.4483 21.9315 72.3504 20.4417 72.3504 18.0426C72.3504 15.6436 73.4483 14.1537 75.2166 14.1537Z" fill="white"/>
<path d="M86.8892 12.1498C85.6778 12.1498 84.7571 12.7745 84.0867 14.055V12.4074H81.7021V23.6769H84.0867V17.8484C84.0867 15.8626 85.3617 14.4758 87.1862 14.4758C87.4419 14.4758 87.6286 14.4983 87.863 14.5381L88.0391 14.5681V12.2324L87.9076 12.2152C87.566 12.1691 87.2616 12.1498 86.8892 12.1498Z" fill="white"/>
<path d="M91.8048 12.4074H89.4202V23.6769H91.8048V12.4074Z" fill="white"/>
<path d="M91.9427 8.45837H89.2823V11.0431H91.9427V8.45837Z" fill="white"/>
<path d="M39.366 15.2143C40.7323 14.6142 41.425 13.5419 41.425 12.0231C41.425 9.50382 39.5177 8 36.3237 8H29.7778V21.3294H32.417V16.5614H36.8552C38.3933 16.5614 39.2748 17.4308 39.2748 18.9454C39.2748 20.5715 38.405 21.3294 36.537 21.3294H32.418V23.6769H36.7077C40.0354 23.6769 42.0211 21.9401 42.0211 19.0312C42.0211 17.0787 41.0378 15.6812 39.3671 15.2143H39.366ZM36.2601 14.3845H32.417V10.3486H36.4298C37.9011 10.3486 38.6797 11.0463 38.6797 12.3676C38.6797 13.7824 37.9563 14.3856 36.2601 14.3856V14.3845Z" fill="white"/>
<path d="M98.6117 14.1323C100.727 14.1323 101.113 15.8251 101.181 16.5517L101.194 16.6902H103.645L103.628 16.5217C103.354 13.8683 101.33 12.0854 98.5916 12.0854C95.3244 12.0854 93.1286 14.479 93.1286 18.0427C93.1286 21.6063 95.3318 24 98.6128 24C101.409 24 103.471 22.1377 103.629 19.4703L103.639 19.3082H101.194L101.182 19.4478C101.085 20.5802 100.561 21.9305 98.6128 21.9305C95.8155 21.9305 95.5981 18.954 95.5981 18.0416C95.5981 17.1292 95.8155 14.1312 98.6128 14.1312L98.6117 14.1323Z" fill="white"/>
<path d="M114.414 12.4073H111.574L107.049 16.8426V8H104.664V23.6769H107.049V19.5046L108.442 18.1521L111.891 23.6071L111.936 23.6769H114.766L110.069 16.6021L114.414 12.4073Z" fill="white"/>
<path d="M119.721 16.7535C119.543 16.7138 119.37 16.6773 119.201 16.6408C117.819 16.3478 117.098 16.1556 117.098 15.3119C117.098 14.3008 118.101 14.0893 118.943 14.0893C120.676 14.0893 121.056 14.9867 121.195 15.7692L121.218 15.8948H123.611L123.598 15.7295C123.459 13.967 122.153 12.0843 118.901 12.0843C116.265 12.0843 114.628 13.3541 114.628 15.3978C114.628 17.8398 117.04 18.4151 118.805 18.837C118.939 18.8659 119.073 18.8928 119.205 18.9196C120.454 19.174 121.533 19.394 121.533 20.5147C121.533 21.47 120.784 21.9745 119.368 21.9745C117.659 21.9745 116.744 21.2628 116.65 19.8599L116.64 19.7171H114.24L114.244 19.8749C114.316 22.406 116.287 23.9796 119.388 23.9796C122.276 23.9796 124 22.6443 124 20.4084C124 17.7689 121.525 17.1829 119.718 16.7546L119.721 16.7535Z" fill="white"/>
<path d="M8 8V24H24V8H8ZM20.8 18.8138H14.4V16.0005H11.2V13.1873H14.4V16.0005H20.8V18.8138Z" fill="white"/>
</g>
</g>
</g>
<g id="Frame 1">
<mask id="path-2-inside-1_7808_1238" fill="white">
<path d="M0 32H600V68H0V32Z"/>
</mask>
<path d="M0 32H600V68H0V32Z" fill="#FBFBFC"/>
<path d="M600 67H0V69H600V67Z" fill="#F7F7F8" mask="url(#path-2-inside-1_7808_1238)"/>
<g id="Frame 5">
<g id="Icon 16px">
<g id="Vector_2">
<path d="M16 48H22V52H16V48Z" fill="#61666D"/>
<path d="M10 44H16V48H10V44Z" fill="#61666D"/>
<path d="M10 52H16V56H10V52Z" fill="#61666D"/>
</g>
</g>
<text id="Blueprint:" fill="#45484D" xml:space="preserve" style="white-space: pre" font-family="Rethink Sans" font-size="12" letter-spacing="0px"><tspan x="32" y="54.092">Blueprint:</tspan></text>
</g>
<text id="@bluebricks/bp-conditional" fill="#313337" xml:space="preserve" style="white-space: pre" font-family="Rethink Sans" font-size="14" font-weight="500" letter-spacing="0.25px"><tspan x="129" y="54.774">@bluebricks/bp-conditional</tspan></text>
</g>
<g id="Frame 3">
<mask id="path-7-inside-2_7808_1238" fill="white">
<path d="M0 68H600V100H0V68Z"/>
</mask>
<path d="M0 68H600V100H0V68Z" fill="#FBFBFC"/>
<path d="M600 99H0V101H600V99Z" fill="#F7F7F8" mask="url(#path-7-inside-2_7808_1238)"/>
<g id="Frame 6">
<g id="Icon 16px_2">
<g id="Vector_3">
<path fill-rule="evenodd" clip-rule="evenodd" d="M10.5 82.2C10.5 81.8686 10.7736 81.6 11.1111 81.6H20.8889C21.2264 81.6 21.5 81.8686 21.5 82.2C21.5 82.5314 21.2264 82.8 20.8889 82.8H11.1111C10.7736 82.8 10.5 82.5314 10.5 82.2Z" fill="#61666D"/>
<path fill-rule="evenodd" clip-rule="evenodd" d="M10.5 85.8C10.5 85.4686 10.7736 85.2 11.1111 85.2H20.8889C21.2264 85.2 21.5 85.4686 21.5 85.8C21.5 86.1314 21.2264 86.4 20.8889 86.4H11.1111C10.7736 86.4 10.5 86.1314 10.5 85.8Z" fill="#61666D"/>
<path fill-rule="evenodd" clip-rule="evenodd" d="M14.8453 78.0037C15.1807 78.0403 15.4224 78.337 15.3852 78.6663L14.1629 89.4662C14.1257 89.7956 13.8235 90.0329 13.4881 89.9963C13.1526 89.9597 12.9109 89.663 12.9482 89.3337L14.1704 78.5338C14.2077 78.2044 14.5098 77.9671 14.8453 78.0037Z" fill="#61666D"/>
<path fill-rule="evenodd" clip-rule="evenodd" d="M18.5119 78.0037C18.8474 78.0403 19.0891 78.337 19.0518 78.6663L17.8296 89.4662C17.7923 89.7956 17.4902 90.0329 17.1547 89.9963C16.8193 89.9597 16.5776 89.663 16.6148 89.3337L17.8371 78.5338C17.8743 78.2044 18.1765 77.9671 18.5119 78.0037Z" fill="#61666D"/>
</g>
</g>
<text id="Version:" fill="#45484D" xml:space="preserve" style="white-space: pre" font-family="Rethink Sans" font-size="12" letter-spacing="0px"><tspan x="32" y="88.092">Version:</tspan></text>
</g>
<g id="Shortcut">
<path d="M129 80C129 77.7909 130.791 76 133 76H190C192.209 76 194 77.7909 194 80V88C194 90.2091 192.209 92 190 92H133C130.791 92 129 90.2091 129 88V80Z" fill="#F7F7F8"/>
<path d="M133 75.5C130.515 75.5 128.5 77.5147 128.5 80V88C128.5 90.4853 130.515 92.5 133 92.5H190C192.485 92.5 194.5 90.4853 194.5 88V80C194.5 77.5147 192.485 75.5 190 75.5H133Z" stroke="#313337" stroke-opacity="0.1"/>
<g id="Symbol Area">
<text id="Label" fill="#777D86" xml:space="preserve" style="white-space: pre" font-family="Rethink Sans" font-size="12" letter-spacing="0px"><tspan x="131.236" y="88.092">1.13.0</tspan></text>
</g>
</g>
</g>
<g id="Frame 12">
<mask id="path-14-inside-3_7808_1238" fill="white">
<path d="M0 100H600V140H0V100Z"/>
</mask>
<path d="M0 100H600V140H0V100Z" fill="#FBFBFC"/>
<path d="M600 139H0V141H600V139Z" fill="#F7F7F8" mask="url(#path-14-inside-3_7808_1238)"/>
<g id="Frame 6_2">
<g id="Icon 16px_3">
<path id="Vector_4" fill-rule="evenodd" clip-rule="evenodd" d="M22 114H10V126H22V114ZM12.25 121.125H16.75V122.625H12.25V121.125ZM12.25 117.375V118.875H19.75V117.375H12.25Z" fill="#61666D"/>
</g>
<text id="Environment:" fill="#45484D" xml:space="preserve" style="white-space: pre" font-family="Rethink Sans" font-size="12" letter-spacing="0px"><tspan x="32" y="124.092">Environment:</tspan></text>
</g>
<g id="Frame 8">
<g id="Company Logos" filter="url(#filter0_dd_7808_1238)">
<path d="M129 116C129 111.582 132.582 108 137 108H145C149.418 108 153 111.582 153 116V124C153 128.418 149.418 132 145 132H137C132.582 132 129 128.418 129 124V116Z" fill="white"/>
<g id="Frame" clip-path="url(#clip1_7808_1238)">
<path id="Vector_5" d="M137.03 119.632C137.03 119.838 137.052 120.004 137.091 120.127C137.14 120.265 137.199 120.398 137.268 120.527C137.293 120.565 137.306 120.61 137.307 120.655C137.307 120.711 137.274 120.766 137.201 120.822L136.852 121.056C136.802 121.089 136.752 121.106 136.708 121.106C136.653 121.106 136.597 121.078 136.542 121.028C136.467 120.947 136.4 120.86 136.342 120.766C136.287 120.672 136.232 120.566 136.171 120.438C135.738 120.95 135.195 121.206 134.541 121.206C134.075 121.206 133.704 121.072 133.432 120.805C133.161 120.538 133.022 120.182 133.022 119.738C133.022 119.265 133.188 118.881 133.526 118.592C133.865 118.303 134.314 118.158 134.885 118.158C135.073 118.158 135.267 118.175 135.472 118.202C135.677 118.23 135.888 118.275 136.11 118.325V117.919C136.11 117.496 136.021 117.201 135.849 117.029C135.672 116.857 135.373 116.773 134.946 116.773C134.744 116.773 134.543 116.797 134.347 116.845C134.143 116.894 133.943 116.957 133.748 117.034C133.685 117.063 133.621 117.087 133.554 117.107C133.516 117.118 133.488 117.123 133.466 117.123C133.388 117.123 133.349 117.068 133.349 116.951V116.678C133.349 116.589 133.36 116.523 133.388 116.484C133.416 116.445 133.466 116.406 133.544 116.368C133.738 116.267 133.97 116.184 134.242 116.117C134.514 116.045 134.802 116.011 135.107 116.011C135.766 116.011 136.249 116.161 136.559 116.462C136.864 116.762 137.019 117.218 137.019 117.83V119.632H137.03ZM134.779 120.477C134.962 120.477 135.151 120.444 135.35 120.377C135.55 120.31 135.727 120.188 135.877 120.021C135.966 119.916 136.032 119.799 136.065 119.665C136.099 119.532 136.121 119.37 136.121 119.181V118.948C135.953 118.907 135.783 118.875 135.611 118.853C135.438 118.831 135.264 118.82 135.09 118.82C134.718 118.82 134.447 118.892 134.264 119.042C134.081 119.192 133.992 119.404 133.992 119.682C133.992 119.943 134.059 120.138 134.197 120.272C134.33 120.411 134.524 120.477 134.779 120.477L134.779 120.477ZM139.231 121.078C139.131 121.078 139.064 121.061 139.02 121.022C138.976 120.989 138.937 120.911 138.904 120.805L137.601 116.506C137.568 116.395 137.551 116.323 137.551 116.284C137.551 116.195 137.595 116.145 137.684 116.145H138.228C138.333 116.145 138.405 116.161 138.444 116.2C138.488 116.234 138.521 116.312 138.555 116.417L139.486 120.099L140.351 116.417C140.378 116.306 140.412 116.234 140.456 116.2C140.5 116.167 140.578 116.145 140.678 116.145H141.121C141.227 116.145 141.299 116.161 141.343 116.2C141.387 116.234 141.426 116.312 141.448 116.417L142.324 120.144L143.283 116.417C143.316 116.306 143.355 116.234 143.393 116.2C143.438 116.167 143.51 116.145 143.61 116.145H144.125C144.214 116.145 144.264 116.189 144.264 116.284C144.264 116.312 144.258 116.339 144.253 116.373C144.244 116.42 144.231 116.467 144.214 116.512L142.878 120.811C142.845 120.922 142.806 120.995 142.762 121.028C142.718 121.061 142.645 121.084 142.551 121.084H142.074C141.969 121.084 141.897 121.067 141.852 121.028C141.808 120.989 141.769 120.917 141.747 120.805L140.888 117.218L140.034 120.8C140.006 120.911 139.973 120.983 139.929 121.022C139.884 121.061 139.807 121.078 139.707 121.078H139.231ZM146.354 121.228C146.066 121.228 145.78 121.195 145.5 121.128C145.223 121.061 145.007 120.989 144.862 120.905C144.774 120.855 144.713 120.8 144.691 120.75C144.669 120.701 144.658 120.648 144.657 120.594V120.31C144.657 120.194 144.701 120.138 144.785 120.138C144.819 120.138 144.852 120.144 144.885 120.155C144.918 120.166 144.968 120.188 145.023 120.21C145.219 120.297 145.423 120.362 145.633 120.405C145.85 120.449 146.071 120.472 146.293 120.472C146.642 120.472 146.913 120.411 147.102 120.288C147.29 120.166 147.39 119.988 147.39 119.76C147.39 119.604 147.34 119.476 147.24 119.37C147.141 119.265 146.952 119.17 146.681 119.081L145.877 118.831C145.472 118.703 145.173 118.514 144.99 118.263C144.807 118.018 144.713 117.746 144.713 117.457C144.713 117.223 144.763 117.017 144.862 116.839C144.961 116.66 145.097 116.505 145.261 116.383C145.428 116.256 145.616 116.161 145.838 116.095C146.06 116.028 146.293 116 146.536 116C146.661 115.999 146.785 116.007 146.908 116.022C147.035 116.039 147.152 116.061 147.268 116.084C147.379 116.111 147.484 116.139 147.584 116.173C147.683 116.206 147.761 116.239 147.817 116.273C147.894 116.317 147.95 116.362 147.983 116.412C148.016 116.456 148.033 116.517 148.033 116.595V116.857C148.033 116.974 147.989 117.035 147.905 117.035C147.861 117.035 147.789 117.013 147.695 116.968C147.379 116.823 147.024 116.751 146.631 116.751C146.315 116.751 146.065 116.801 145.893 116.907C145.722 117.012 145.633 117.174 145.633 117.402C145.633 117.557 145.688 117.691 145.799 117.796C145.91 117.902 146.115 118.008 146.409 118.102L147.196 118.353C147.595 118.481 147.883 118.659 148.056 118.887C148.228 119.115 148.311 119.376 148.311 119.665C148.311 119.905 148.261 120.122 148.166 120.311C148.067 120.5 147.934 120.667 147.762 120.8C147.59 120.939 147.385 121.039 147.146 121.112C146.897 121.189 146.636 121.228 146.354 121.228L146.354 121.228Z" fill="#252F3E"/>
<path id="Vector_6" d="M147.401 123.931C145.578 125.282 142.928 126 140.65 126C137.457 126 134.58 124.815 132.407 122.846C132.235 122.691 132.391 122.479 132.596 122.602C134.946 123.97 137.845 124.799 140.844 124.799C142.867 124.799 145.09 124.376 147.136 123.508C147.44 123.369 147.701 123.708 147.402 123.931H147.401Z" fill="#FF9900"/>
<path id="Vector_7" d="M148.161 123.063C147.928 122.763 146.62 122.919 146.027 122.991C145.849 123.013 145.822 122.858 145.983 122.74C147.025 122.006 148.737 122.218 148.937 122.462C149.137 122.713 148.882 124.431 147.906 125.254C147.757 125.382 147.612 125.315 147.679 125.149C147.9 124.598 148.394 123.358 148.161 123.063Z" fill="#FF9900"/>
</g>
</g>
<text id="andrii-test" fill="#313337" xml:space="preserve" style="white-space: pre" font-family="Rethink Sans" font-size="14" letter-spacing="0px"><tspan x="161" y="124.774">andrii-test</tspan></text>
</g>
</g>
<g id="Frame 8_2">
<mask id="path-23-inside-4_7808_1238" fill="white">
<path d="M0 140H600V176H0V140Z"/>
</mask>
<path d="M600 175H0V177H600V175Z" fill="#F7F7F8" mask="url(#path-23-inside-4_7808_1238)"/>
<g id="Frame 5_2">
<g id="Icon 16px_4">
<g id="Vector_8">
<path fill-rule="evenodd" clip-rule="evenodd" d="M15.1013 151.736C15.3746 151.581 15.6845 151.5 16 151.5C16.3155 151.5 16.6254 151.581 16.8987 151.736L16.9 151.737L21.1 154.092C21.3734 154.247 21.6004 154.47 21.7584 154.738C21.9164 155.006 21.9997 155.31 22 155.62V160.332C21.9997 160.642 21.9164 160.946 21.7584 161.214C21.6004 161.482 21.3734 161.705 21.1 161.86L21.0977 161.861L16.9 164.215L16.8989 164.216C16.6256 164.37 16.3156 164.452 16 164.452C15.6845 164.452 15.3745 164.37 15.1011 164.216L15.1 164.215L10.9023 161.861L10.9 161.86C10.6266 161.705 10.3996 161.482 10.2416 161.214C10.0836 160.946 10.0003 160.642 10 160.332V155.62C10.0003 155.31 10.0836 155.006 10.2416 154.738C10.3996 154.47 10.6266 154.247 10.9 154.092L10.9023 154.091L15.1013 151.736ZM16 152.678C15.8947 152.678 15.7912 152.705 15.7 152.757L15.6977 152.758L11.5 155.112L11.4991 155.112C11.4084 155.164 11.333 155.238 11.2805 155.327C11.2279 155.416 11.2002 155.518 11.2 155.621V160.331C11.2002 160.434 11.2279 160.535 11.2805 160.625C11.333 160.714 11.4084 160.788 11.4991 160.839L11.5 160.84L15.7 163.195C15.7912 163.247 15.8947 163.274 16 163.274C16.1053 163.274 16.2088 163.247 16.3 163.195L16.3023 163.194L20.5 160.84L20.501 160.839C20.5916 160.788 20.667 160.714 20.7195 160.625C20.7721 160.535 20.7999 160.434 20.8 160.331V155.621C20.7999 155.518 20.7721 155.416 20.7195 155.327C20.667 155.238 20.5917 155.164 20.501 155.112L20.5 155.112L16.3 152.757C16.2088 152.705 16.1053 152.678 16 152.678Z" fill="#61666D"/>
<path fill-rule="evenodd" clip-rule="evenodd" d="M10.2426 154.713C10.4086 154.432 10.7756 154.336 11.0624 154.498L16 157.301L20.9376 154.498C21.2244 154.336 21.5914 154.432 21.7574 154.713C21.9233 154.995 21.8253 155.355 21.5384 155.518L16.3004 158.491C16.1146 158.597 15.8854 158.597 15.6996 158.491L10.4616 155.518C10.1747 155.355 10.0767 154.995 10.2426 154.713Z" fill="#61666D"/>
<path fill-rule="evenodd" clip-rule="evenodd" d="M16 157.387C16.3314 157.387 16.6 157.651 16.6 157.976V163.911C16.6 164.236 16.3314 164.5 16 164.5C15.6686 164.5 15.4 164.236 15.4 163.911V157.976C15.4 157.651 15.6686 157.387 16 157.387Z" fill="#61666D"/>
</g>
</g>
<text id="Deployment:" fill="#45484D" xml:space="preserve" style="white-space: pre" font-family="Rethink Sans" font-size="12" letter-spacing="0px"><tspan x="32" y="162.092">Deployment:</tspan></text>
</g>
<text id="bluebricks-bp-conditional-descriptive" fill="#313337" xml:space="preserve" style="white-space: pre" font-family="Rethink Sans" font-size="14" font-weight="500" letter-spacing="0.25px"><tspan x="129" y="162.774">bluebricks-bp-conditional-descriptive</tspan></text>
</g>
<g id="Frame 4">
<mask id="path-28-inside-5_7808_1238" fill="white">
<path d="M0 176H600V216H0V176Z"/>
</mask>
<path d="M600 215H0V217H600V215Z" fill="#F7F7F8" mask="url(#path-28-inside-5_7808_1238)"/>
<g id="Frame 7">
<g id="Icon 16px_5">
<path id="Vector_9" fill-rule="evenodd" clip-rule="evenodd" d="M16 191.091C13.2888 191.091 11.0909 193.289 11.0909 196C11.0909 198.711 13.2888 200.909 16 200.909C18.7112 200.909 20.9091 198.711 20.9091 196C20.9091 193.289 18.7112 191.091 16 191.091ZM10 196C10 192.686 12.6863 190 16 190C19.3137 190 22 192.686 22 196C22 199.314 19.3137 202 16 202C12.6863 202 10 199.314 10 196Z" fill="#61666D"/>
</g>
<text id="Status:" fill="#45484D" xml:space="preserve" style="white-space: pre" font-family="Rethink Sans" font-size="12" letter-spacing="0px"><tspan x="32" y="200.092">Status:</tspan></text>
</g>
<g id="Frame 18">
<g id="Rounded Chip">
<path d="M129 196C129 189.373 134.373 184 141 184H242C248.627 184 254 189.373 254 196C254 202.627 248.627 208 242 208H141C134.373 208 129 202.627 129 196Z" fill="#F4BE33" fill-opacity="0.05"/>
<g id="Icon 16px_6">
<g id="Vector_10">
<path fill-rule="evenodd" clip-rule="evenodd" d="M141 191.091C138.289 191.091 136.091 193.289 136.091 196C136.091 198.711 138.289 200.909 141 200.909C143.711 200.909 145.909 198.711 145.909 196C145.909 193.289 143.711 191.091 141 191.091ZM135 196C135 192.686 137.686 190 141 190C144.314 190 147 192.686 147 196C147 199.314 144.314 202 141 202C137.686 202 135 199.314 135 196Z" fill="#A17916"/>
<path fill-rule="evenodd" clip-rule="evenodd" d="M141 192.182C141.301 192.182 141.545 192.426 141.545 192.727V195.663L143.426 196.603C143.695 196.738 143.804 197.065 143.67 197.335C143.535 197.604 143.207 197.714 142.938 197.579L140.756 196.488C140.571 196.395 140.455 196.207 140.455 196V192.727C140.455 192.426 140.699 192.182 141 192.182Z" fill="#A17916"/>
</g>
</g>
<text id="Label_2" fill="#A17916" xml:space="preserve" style="white-space: pre" font-family="Rethink Sans" font-size="12" font-weight="500" letter-spacing="0px"><tspan x="153" y="200.092">Pending approval</tspan></text>
</g>
<text id="16/03/2025 08:33:23" fill="#777D86" xml:space="preserve" style="white-space: pre" font-family="Rethink Sans" font-size="12" letter-spacing="0px"><tspan x="266" y="200.092">16/03/2025 08:33:23</tspan></text>
</g>
</g>
<g id="Frame 11">
<mask id="path-36-inside-6_7808_1238" fill="white">
<path d="M0 216H600V252H0V216Z"/>
</mask>
<path d="M600 251H0V253H600V251Z" fill="#F7F7F8" mask="url(#path-36-inside-6_7808_1238)"/>
<g id="Frame 5_3">
<g id="Icon 16px_7">
<g id="Vector_11">
<path fill-rule="evenodd" clip-rule="evenodd" d="M11.395 236.079C11.968 235.516 12.7452 235.2 13.5556 235.2H18.4444C19.2548 235.2 20.032 235.516 20.605 236.079C21.1781 236.641 21.5 237.404 21.5 238.2V239.4C21.5 239.731 21.2264 240 20.8889 240C20.5514 240 20.2778 239.731 20.2778 239.4V238.2C20.2778 237.723 20.0846 237.265 19.7408 236.927C19.397 236.59 18.9307 236.4 18.4444 236.4H13.5556C13.0693 236.4 12.603 236.59 12.2592 236.927C11.9154 237.265 11.7222 237.723 11.7222 238.2V239.4C11.7222 239.731 11.4486 240 11.1111 240C10.7736 240 10.5 239.731 10.5 239.4V238.2C10.5 237.404 10.8219 236.641 11.395 236.079Z" fill="#61666D"/>
<path fill-rule="evenodd" clip-rule="evenodd" d="M16 229.2C14.9875 229.2 14.1667 230.006 14.1667 231C14.1667 231.994 14.9875 232.8 16 232.8C17.0125 232.8 17.8333 231.994 17.8333 231C17.8333 230.006 17.0125 229.2 16 229.2ZM12.9444 231C12.9444 229.343 14.3125 228 16 228C17.6875 228 19.0556 229.343 19.0556 231C19.0556 232.657 17.6875 234 16 234C14.3125 234 12.9444 232.657 12.9444 231Z" fill="#61666D"/>
</g>
</g>
<text id="Initiator:" fill="#45484D" xml:space="preserve" style="white-space: pre" font-family="Rethink Sans" font-size="12" letter-spacing="0px"><tspan x="32" y="238.092">Initiator:</tspan></text>
</g>
<text id="Viktoria Borisova" fill="#313337" xml:space="preserve" style="white-space: pre" font-family="Rethink Sans" font-size="14" letter-spacing="0px"><tspan x="129" y="238.774">Viktoria Borisova</tspan></text>
</g>
<g id="Frame 7_2">
<g id="Frame 7_3">
<g id="Icon 16px_8">
<g id="Vector_12">
<path fill-rule="evenodd" clip-rule="evenodd" d="M16.1092 273.41C15.9424 273.302 15.7581 273.207 15.5563 273.124C15.3545 273.041 15.1263 273 14.8718 273C14.3628 273 13.9372 273.161 13.595 273.484C13.3415 273.718 13.1481 274.053 13.015 274.491C12.9365 274.749 13.177 274.988 13.4872 274.988C13.7438 274.988 13.945 274.816 14.0483 274.614C14.0921 274.528 14.1472 274.454 14.2136 274.391C14.3628 274.242 14.5559 274.168 14.7928 274.168C15.0034 274.168 15.1921 274.209 15.3588 274.292C15.5344 274.375 15.7099 274.474 15.8854 274.59C16.0609 274.698 16.2452 274.793 16.4382 274.876C16.6401 274.959 16.8638 275 17.1096 275C17.6361 275 18.0705 274.839 18.4127 274.516C18.6667 274.276 18.8578 273.936 18.9861 273.496C19.0615 273.237 18.82 273 18.5101 273C18.2519 273 18.0489 273.173 17.9433 273.375C17.8971 273.464 17.8386 273.542 17.7677 273.609C17.6185 273.749 17.4299 273.82 17.2017 273.82C16.9999 273.82 16.8112 273.778 16.6357 273.696C16.4602 273.613 16.2847 273.518 16.1092 273.41Z" fill="#61666D"/>
<path fill-rule="evenodd" clip-rule="evenodd" d="M16 269.091C13.2888 269.091 11.0909 271.289 11.0909 274C11.0909 276.711 13.2888 278.909 16 278.909C18.7112 278.909 20.9091 276.711 20.9091 274C20.9091 271.289 18.7112 269.091 16 269.091ZM10 274C10 270.686 12.6863 268 16 268C19.3137 268 22 270.686 22 274C22 277.314 19.3137 280 16 280C12.6863 280 10 277.314 10 274Z" fill="#61666D"/>
</g>
</g>
<text id="Actions:" fill="#45484D" xml:space="preserve" style="white-space: pre" font-family="Rethink Sans" font-size="12" letter-spacing="0px"><tspan x="32" y="278.092">Actions:</tspan></text>
</g>
<g id="Frame 9">
<g id="Filter Chip">
<path d="M129 274C129 266.268 135.268 260 143 260H247C254.732 260 261 266.268 261 274C261 281.732 254.732 288 247 288H143C135.268 288 129 281.732 129 274Z" fill="#9C0000" fill-opacity="0.02"/>
<path d="M143 259.5C134.992 259.5 128.5 265.992 128.5 274C128.5 282.008 134.992 288.5 143 288.5H247C255.008 288.5 261.5 282.008 261.5 274C261.5 265.992 255.008 259.5 247 259.5H143Z" stroke="#9C0000" stroke-opacity="0.1"/>
<g id="Number and Label">
<g id="Label_3">
<g id="Rounded Badge">
<path d="M133 274C133 268.477 137.477 264 143 264C148.523 264 153 268.477 153 274C153 279.523 148.523 284 143 284C137.477 284 133 279.523 133 274Z" fill="#9C0000" fill-opacity="0.05"/>
<path d="M143 263.5C137.201 263.5 132.5 268.201 132.5 274C132.5 279.799 137.201 284.5 143 284.5C148.799 284.5 153.5 279.799 153.5 274C153.5 268.201 148.799 263.5 143 263.5Z" stroke="#9C0000" stroke-opacity="0.1"/>
<g id="Symbol Area_2">
<g id="Icon 16px_9">
<path id="Vector_13" fill-rule="evenodd" clip-rule="evenodd" d="M139 274C139 273.586 139.358 273.25 139.8 273.25H146.2C146.642 273.25 147 273.586 147 274C147 274.414 146.642 274.75 146.2 274.75H139.8C139.358 274.75 139 274.414 139 274Z" fill="#9C0000"/>
</g>
</g>
</g>
<text id="4" fill="#9C0000" xml:space="preserve" style="white-space: pre" font-family="Rethink Sans" font-size="12" font-weight="500" letter-spacing="0px"><tspan x="159" y="278.092">4</tspan></text>
<text id="to Destroy" fill="#9C0000" xml:space="preserve" style="white-space: pre" font-family="Rethink Sans" font-size="12" letter-spacing="0px"><tspan x="194" y="278.092">to Destroy</tspan></text>
</g>
</g>
</g>
<g id="Filter Chip_2">
<path d="M269 274C269 266.268 275.268 260 283 260H386C393.732 260 400 266.268 400 274C400 281.732 393.732 288 386 288H283C275.268 288 269 281.732 269 274Z" fill="#FFFDFB"/>
<path d="M283 259.5C274.992 259.5 268.5 265.992 268.5 274C268.5 282.008 274.992 288.5 283 288.5H386C394.008 288.5 400.5 282.008 400.5 274C400.5 265.992 394.008 259.5 386 259.5H283Z" stroke="#A17916" stroke-opacity="0.15"/>
<g id="Number and Label_2">
<g id="Label_4">
<g id="Rounded Badge_2">
<path d="M273 274C273 268.477 277.477 264 283 264C288.523 264 293 268.477 293 274C293 279.523 288.523 284 283 284C277.477 284 273 279.523 273 274Z" fill="#F4BE33" fill-opacity="0.2"/>
<path d="M283 263.5C277.201 263.5 272.5 268.201 272.5 274C272.5 279.799 277.201 284.5 283 284.5C288.799 284.5 293.5 279.799 293.5 274C293.5 268.201 288.799 263.5 283 263.5Z" stroke="#A17916" stroke-opacity="0.2"/>
<g id="Symbol Area_3">
<g id="Icon 16px_10">
<path id="Vector_14" fill-rule="evenodd" clip-rule="evenodd" d="M283.146 273.115C282.923 272.953 282.678 272.811 282.408 272.686C282.139 272.562 281.835 272.5 281.496 272.5C280.817 272.5 280.25 272.742 279.793 273.227C279.455 273.576 279.198 274.079 279.02 274.736C278.915 275.123 279.236 275.481 279.65 275.481C279.992 275.481 280.26 275.224 280.398 274.921C280.456 274.792 280.53 274.681 280.618 274.587C280.817 274.363 281.075 274.252 281.39 274.252C281.671 274.252 281.923 274.314 282.145 274.438C282.379 274.562 282.613 274.711 282.847 274.885C283.081 275.047 283.327 275.189 283.584 275.314C283.853 275.438 284.152 275.5 284.479 275.5C285.181 275.5 285.761 275.258 286.217 274.773C286.556 274.414 286.81 273.904 286.981 273.244C287.082 272.856 286.76 272.5 286.347 272.5C286.003 272.5 285.732 272.759 285.591 273.063C285.53 273.196 285.451 273.313 285.357 273.413C285.158 273.624 284.906 273.73 284.602 273.73C284.333 273.73 284.082 273.668 283.848 273.543C283.614 273.419 283.38 273.276 283.146 273.115Z" fill="#A17916"/>
</g>
</g>
</g>
<text id="0" fill="#A17916" xml:space="preserve" style="white-space: pre" font-family="Rethink Sans" font-size="12" font-weight="500" letter-spacing="0px"><tspan x="299" y="278.092">0</tspan></text>
<text id="to Change" fill="#A17916" xml:space="preserve" style="white-space: pre" font-family="Rethink Sans" font-size="12" letter-spacing="0px"><tspan x="334" y="278.092">to Change</tspan></text>
</g>
</g>
</g>
<g id="Filter Chip_3">
<path d="M408 274C408 266.268 414.268 260 422 260H505C512.732 260 519 266.268 519 274C519 281.732 512.732 288 505 288H422C414.268 288 408 281.732 408 274Z" fill="#F2F9F3" fill-opacity="0.3"/>
<path d="M422 259.5C413.992 259.5 407.5 265.992 407.5 274C407.5 282.008 413.992 288.5 422 288.5H505C513.008 288.5 519.5 282.008 519.5 274C519.5 265.992 513.008 259.5 505 259.5H422Z" stroke="#00531F" stroke-opacity="0.15"/>
<g id="Number and Label_3">
<g id="Label_5">
<g id="Rounded Badge_3">
<path d="M412 274C412 268.477 416.477 264 422 264C427.523 264 432 268.477 432 274C432 279.523 427.523 284 422 284C416.477 284 412 279.523 412 274Z" fill="#00531F" fill-opacity="0.05"/>
<path d="M422 263.5C416.201 263.5 411.5 268.201 411.5 274C411.5 279.799 416.201 284.5 422 284.5C427.799 284.5 432.5 279.799 432.5 274C432.5 268.201 427.799 263.5 422 263.5Z" stroke="#00531F" stroke-opacity="0.1"/>
<g id="Symbol Area_4">
<g id="Icon 16px_11">
<g id="Vector_15">
<path fill-rule="evenodd" clip-rule="evenodd" d="M422 270C422.442 270 422.8 270.358 422.8 270.8V277.2C422.8 277.642 422.442 278 422 278C421.558 278 421.2 277.642 421.2 277.2V270.8C421.2 270.358 421.558 270 422 270Z" fill="#00752C"/>
<path fill-rule="evenodd" clip-rule="evenodd" d="M418 274C418 273.558 418.358 273.2 418.8 273.2H425.2C425.642 273.2 426 273.558 426 274C426 274.442 425.642 274.8 425.2 274.8H418.8C418.358 274.8 418 274.442 418 274Z" fill="#00752C"/>
</g>
</g>
</g>
</g>
<text id="4" fill="#00752C" xml:space="preserve" style="white-space: pre" font-family="Rethink Sans" font-size="12" font-weight="500" letter-spacing="0px"><tspan x="438" y="278.092">4</tspan></text>
<text id="to Add" fill="#00752C" xml:space="preserve" style="white-space: pre" font-family="Rethink Sans" font-size="12" letter-spacing="0px"><tspan x="473" y="278.092">to Add</tspan></text>
</g>
</g>
</g>
</g>
</g>
</g>
<defs>
<filter id="filter0_dd_7808_1238" x="126" y="107" width="30" height="30" filterUnits="userSpaceOnUse" color-interpolation-filters="sRGB">
<feFlood flood-opacity="0" result="BackgroundImageFix"/>
<feColorMatrix in="SourceAlpha" type="matrix" values="0 0 0 0 0 0 0 0 0 0 0 0 0 0 0 0 0 0 127 0" result="hardAlpha"/>
<feMorphology radius="1" operator="erode" in="SourceAlpha" result="effect1_dropShadow_7808_1238"/>
<feOffset dy="2"/>
<feGaussianBlur stdDeviation="2"/>
<feComposite in2="hardAlpha" operator="out"/>
<feColorMatrix type="matrix" values="0 0 0 0 0 0 0 0 0 0.156863 0 0 0 0 0.85098 0 0 0 0.05 0"/>
<feBlend mode="normal" in2="BackgroundImageFix" result="effect1_dropShadow_7808_1238"/>
<feColorMatrix in="SourceAlpha" type="matrix" values="0 0 0 0 0 0 0 0 0 0 0 0 0 0 0 0 0 0 127 0" result="hardAlpha"/>
<feMorphology radius="1" operator="erode" in="SourceAlpha" result="effect2_dropShadow_7808_1238"/>
<feOffset dy="1"/>
<feGaussianBlur stdDeviation="1"/>
<feComposite in2="hardAlpha" operator="out"/>
<feColorMatrix type="matrix" values="0 0 0 0 0 0 0 0 0 0.156863 0 0 0 0 0.85098 0 0 0 0.05 0"/>
<feBlend mode="normal" in2="effect1_dropShadow_7808_1238" result="effect2_dropShadow_7808_1238"/>
<feBlend mode="normal" in="SourceGraphic" in2="effect2_dropShadow_7808_1238" result="shape"/>
</filter>
<clipPath id="clip0_7808_1238">
<rect width="116" height="16" fill="white" transform="translate(8 8)"/>
</clipPath>
<clipPath id="clip1_7808_1238">
<rect width="16" height="10" fill="white" transform="translate(133 116)"/>
</clipPath>
</defs>
</svg>
